<mxfile host="app.diagrams.net" agent="Mozilla/5.0 (Windows NT 10.0; Win64; x64) AppleWebKit/537.36 (KHTML, like Gecko) Chrome/131.0.0.0 Safari/537.36" version="25.0.1">
  <diagram id="C5RBs43oDa-KdzZeNtuy" name="Page-1">
    <mxGraphModel grid="1" page="1" gridSize="10" guides="1" tooltips="1" connect="1" arrows="1" fold="1" pageScale="1" pageWidth="827" pageHeight="1169" math="0" shadow="0">
      <root>
        <mxCell id="WIyWlLk6GJQsqaUBKTNV-0" />
        <mxCell id="WIyWlLk6GJQsqaUBKTNV-1" parent="WIyWlLk6GJQsqaUBKTNV-0" />
        <mxCell id="DlXqGKE8CSf4yeo-T8XL-3" value="" style="edgeStyle=orthogonalEdgeStyle;rounded=0;orthogonalLoop=1;jettySize=auto;html=1;" edge="1" parent="WIyWlLk6GJQsqaUBKTNV-1" source="DlXqGKE8CSf4yeo-T8XL-0" target="DlXqGKE8CSf4yeo-T8XL-2">
          <mxGeometry relative="1" as="geometry" />
        </mxCell>
        <mxCell id="DlXqGKE8CSf4yeo-T8XL-0" value="Nhập N, giaithua = 1" style="ellipse;whiteSpace=wrap;html=1;" vertex="1" parent="WIyWlLk6GJQsqaUBKTNV-1">
          <mxGeometry x="310" y="50" width="170" height="60" as="geometry" />
        </mxCell>
        <mxCell id="DlXqGKE8CSf4yeo-T8XL-5" value="" style="edgeStyle=orthogonalEdgeStyle;rounded=0;orthogonalLoop=1;jettySize=auto;html=1;" edge="1" parent="WIyWlLk6GJQsqaUBKTNV-1" source="DlXqGKE8CSf4yeo-T8XL-2" target="DlXqGKE8CSf4yeo-T8XL-4">
          <mxGeometry relative="1" as="geometry" />
        </mxCell>
        <mxCell id="DlXqGKE8CSf4yeo-T8XL-2" value="giaithua = giaithua*N" style="rhombus;whiteSpace=wrap;html=1;" vertex="1" parent="WIyWlLk6GJQsqaUBKTNV-1">
          <mxGeometry x="315" y="180" width="160" height="80" as="geometry" />
        </mxCell>
        <mxCell id="DlXqGKE8CSf4yeo-T8XL-7" value="" style="edgeStyle=orthogonalEdgeStyle;rounded=0;orthogonalLoop=1;jettySize=auto;html=1;" edge="1" parent="WIyWlLk6GJQsqaUBKTNV-1" source="DlXqGKE8CSf4yeo-T8XL-4" target="DlXqGKE8CSf4yeo-T8XL-6">
          <mxGeometry relative="1" as="geometry" />
        </mxCell>
        <mxCell id="DlXqGKE8CSf4yeo-T8XL-11" value="" style="edgeStyle=orthogonalEdgeStyle;rounded=0;orthogonalLoop=1;jettySize=auto;html=1;" edge="1" parent="WIyWlLk6GJQsqaUBKTNV-1" source="DlXqGKE8CSf4yeo-T8XL-4">
          <mxGeometry relative="1" as="geometry">
            <mxPoint x="395" y="500" as="targetPoint" />
          </mxGeometry>
        </mxCell>
        <mxCell id="DlXqGKE8CSf4yeo-T8XL-4" value="N = 1" style="rhombus;whiteSpace=wrap;html=1;" vertex="1" parent="WIyWlLk6GJQsqaUBKTNV-1">
          <mxGeometry x="315" y="340" width="160" height="80" as="geometry" />
        </mxCell>
        <mxCell id="DlXqGKE8CSf4yeo-T8XL-6" value="Giai thừa" style="ellipse;whiteSpace=wrap;html=1;" vertex="1" parent="WIyWlLk6GJQsqaUBKTNV-1">
          <mxGeometry x="595" y="340" width="165" height="80" as="geometry" />
        </mxCell>
        <mxCell id="DlXqGKE8CSf4yeo-T8XL-8" value="Yes" style="text;html=1;align=center;verticalAlign=middle;whiteSpace=wrap;rounded=0;" vertex="1" parent="WIyWlLk6GJQsqaUBKTNV-1">
          <mxGeometry x="500" y="340" width="60" height="30" as="geometry" />
        </mxCell>
        <mxCell id="DlXqGKE8CSf4yeo-T8XL-9" value="No" style="text;html=1;align=center;verticalAlign=middle;whiteSpace=wrap;rounded=0;" vertex="1" parent="WIyWlLk6GJQsqaUBKTNV-1">
          <mxGeometry x="400" y="450" width="60" height="30" as="geometry" />
        </mxCell>
        <mxCell id="DlXqGKE8CSf4yeo-T8XL-12" value="N = N - 1" style="rounded=0;whiteSpace=wrap;html=1;" vertex="1" parent="WIyWlLk6GJQsqaUBKTNV-1">
          <mxGeometry x="320" y="500" width="160" height="60" as="geometry" />
        </mxCell>
        <mxCell id="DlXqGKE8CSf4yeo-T8XL-13" value="" style="endArrow=classic;html=1;rounded=0;exitX=0;exitY=0.5;exitDx=0;exitDy=0;" edge="1" parent="WIyWlLk6GJQsqaUBKTNV-1" source="DlXqGKE8CSf4yeo-T8XL-12">
          <mxGeometry width="50" height="50" relative="1" as="geometry">
            <mxPoint x="210" y="530" as="sourcePoint" />
            <mxPoint x="390" y="150" as="targetPoint" />
            <Array as="points">
              <mxPoint x="230" y="530" />
              <mxPoint x="230" y="150" />
            </Array>
          </mxGeometry>
        </mxCell>
      </root>
    </mxGraphModel>
  </diagram>
</mxfile>
